<svg width="134" height="35" viewBox="0 0 134 35" fill="none" xmlns="http://www.w3.org/2000/svg">
<path d="M122.483 6.92912C116.219 6.92912 111.697 11.4658 111.697 17.5756C111.697 23.6854 116.219 28.1284 122.483 28.1284C128.817 28.1284 133.302 23.6292 133.302 17.5896C133.302 11.5501 128.808 6.92912 122.483 6.92912ZM122.483 24.4204C118.387 24.4204 115.603 21.4615 115.603 17.5756C115.603 13.6897 118.405 10.6184 122.483 10.6184C126.561 10.6184 129.439 13.6148 129.439 17.5756C129.439 21.5364 126.617 24.4204 122.483 24.4204Z" fill="#010B1F"/>
<path d="M77.6912 7.4628H73.674V27.5712H77.6912V7.4628Z" fill="#010B1F"/>
<path d="M61.1132 7.12106C59.9058 7.10034 58.7075 7.3343 57.5962 7.80776C56.4848 8.28121 55.4852 8.98359 54.6622 9.86929V7.46752H50.6404V34.8047H54.6622V25.3849C55.5151 26.2191 56.524 26.8761 57.6312 27.318C58.7383 27.7599 59.9216 27.9781 61.1132 27.9599C66.9101 27.9599 70.7778 23.6151 70.7778 17.5756C70.7778 11.536 66.9101 7.12106 61.1132 7.12106ZM60.0715 24.4438C58.0415 24.4296 56.0985 23.6157 54.6622 22.1778V12.964C55.3565 12.2242 56.1947 11.6348 57.125 11.2322C58.0554 10.8295 59.0581 10.6222 60.0715 10.6231C64.1307 10.6231 66.7186 13.4696 66.7186 17.5803C66.7186 21.6909 64.0887 24.4579 60.0715 24.4579V24.4438Z" fill="#010B1F"/>
<path d="M27.6114 34.8047H31.6473V25.3848C32.5007 26.2196 33.5104 26.8769 34.6184 27.3189C35.7263 27.7608 36.9106 27.9786 38.1029 27.9598C43.8998 27.9598 47.7629 23.6151 47.7629 17.5756C47.7629 11.536 43.8998 7.12104 38.1029 7.12104C36.8947 7.09995 35.6957 7.33372 34.5835 7.80718C33.4714 8.28064 32.471 8.9832 31.6473 9.86927V7.46749H27.6301L27.6114 34.8047ZM37.0378 24.4578C35.0144 24.4387 33.079 23.6252 31.6473 22.1918V12.964C32.3416 12.2241 33.1797 11.6347 34.1101 11.2321C35.0404 10.8295 36.0432 10.6222 37.0565 10.623C41.1158 10.623 43.7036 13.4696 43.7036 17.5802C43.7036 21.6909 41.0597 24.4578 37.0378 24.4578Z" fill="#010B1F"/>
<path d="M93.1528 7.12104C89.9064 7.12104 87.4306 8.46472 85.9265 10.5809V7.4675H81.9046V27.5759H85.9265V15.1551C86.3221 13.8864 87.1141 12.7788 88.1856 11.9956C89.2572 11.2125 90.5515 10.7953 91.8776 10.8056C95.4324 10.8056 97.0159 13.1887 97.0159 16.6111V27.5712H101.033V16.0025C101.033 11.0023 98.6368 7.12104 93.1528 7.12104Z" fill="#010B1F"/>
<path d="M108.797 7.4628H104.779V27.5712H108.797V7.4628Z" fill="#010B1F"/>
<path d="M75.6686 4.88782C77.0153 4.88782 78.1069 3.79365 78.1069 2.44391C78.1069 1.09418 77.0153 0 75.6686 0C74.3219 0 73.2302 1.09418 73.2302 2.44391C73.2302 3.79365 74.3219 4.88782 75.6686 4.88782Z" fill="#010B1F"/>
<path d="M106.788 4.87845C108.13 4.87845 109.217 3.78847 109.217 2.44391C109.217 1.09934 108.13 0.00935725 106.788 0.00935725C105.447 0.00935725 104.359 1.09934 104.359 2.44391C104.359 3.78847 105.447 4.87845 106.788 4.87845Z" fill="#010B1F"/>
<path d="M26.7846 27.9224C22.034 24.4672 21.5996 19.4296 21.5996 17.4491C21.6111 15.9669 21.3105 14.4989 20.7172 13.1411C20.124 11.7834 19.2516 10.5663 18.1569 9.56964C17.3382 10.602 16.2949 11.4331 15.1066 11.9995C15.9387 12.639 16.6097 13.4651 17.0656 14.4115C17.5215 15.358 17.7497 16.3983 17.7318 17.4491C17.6707 20.0107 18.5644 22.5031 20.2383 24.4397C21.9123 26.3762 24.2463 27.618 26.7846 27.9224Z" fill="#010B1F"/>
<path d="M10.7811 24.4157C6.68914 24.4157 3.90511 21.4568 3.90511 17.5756C3.90511 13.6147 6.70783 10.6137 10.7811 10.6137C15.513 10.6137 17.7879 6.94314 17.7879 3.97955C16.8892 4.93264 15.8016 5.68695 14.595 6.19408C13.3883 6.70122 12.0893 6.94998 10.7811 6.92442C4.52171 6.92442 0 11.4611 0 17.5756C0 23.6104 4.52171 28.1097 10.7811 28.1097C13.4519 28.1647 16.0522 27.2483 18.1009 25.53C17.2768 24.4791 16.6284 23.3011 16.181 22.042C15.5125 22.8138 14.6812 23.427 13.7474 23.8375C12.8135 24.248 11.8004 24.4455 10.7811 24.4157Z" fill="#010B1F"/>
</svg>
